<?xml version="1.0" encoding="UTF-8"?>
<svg id="Layer_1" data-name="Layer 1" xmlns="http://www.w3.org/2000/svg" xmlns:xlink="http://www.w3.org/1999/xlink" viewBox="0 0 139.51 148.91">
  <defs>
    <style>
      .cls-1, .cls-2 {
        fill: #fff;
      }

      .cls-3 {
        letter-spacing: -.03em;
      }

      .cls-4 {
        letter-spacing: 0em;
      }

      .cls-5 {
        letter-spacing: 0em;
      }

      .cls-6 {
        stroke: #fff;
        stroke-width: 2px;
      }

      .cls-6, .cls-7, .cls-8 {
        stroke-miterlimit: 10;
      }

      .cls-6, .cls-8 {
        fill: none;
      }

      .cls-9 {
        fill: url(#linear-gradient-3);
      }

      .cls-7 {
        fill: url(#linear-gradient);
        stroke: url(#linear-gradient-2);
      }

      .cls-2, .cls-8 {
        font-family: TimesNewRomanPS-BoldItalicMT, 'Times New Roman';
        font-size: 31.24px;
        font-style: italic;
        font-weight: 700;
      }

      .cls-8 {
        stroke: #231f20;
        stroke-width: .05px;
      }
    </style>
    <linearGradient id="linear-gradient" x1=".5" y1="74.45" x2="139.01" y2="74.45" gradientUnits="userSpaceOnUse">
      <stop offset=".1" stop-color="#3e51a1"/>
      <stop offset=".11" stop-color="#40589a"/>
      <stop offset=".18" stop-color="#4e8176"/>
      <stop offset=".24" stop-color="#58a05b"/>
      <stop offset=".29" stop-color="#5eb24b"/>
      <stop offset=".33" stop-color="#61b946"/>
      <stop offset=".33" stop-color="#61b946"/>
      <stop offset=".47" stop-color="#b0d458"/>
      <stop offset=".56" stop-color="#e1e664"/>
      <stop offset=".61" stop-color="#f4ed69"/>
      <stop offset=".9" stop-color="#d72028" stop-opacity=".9"/>
    </linearGradient>
    <linearGradient id="linear-gradient-2" x1="0" y1="74.45" x2="139.51" y2="74.45" gradientUnits="userSpaceOnUse">
      <stop offset="0" stop-color="#231f20"/>
      <stop offset=".99" stop-color="#231f20"/>
    </linearGradient>
    <linearGradient id="linear-gradient-3" x1="19.44" y1="73.29" x2="130.73" y2="73.29" gradientUnits="userSpaceOnUse">
      <stop offset=".09" stop-color="#5f50a0"/>
      <stop offset=".28" stop-color="#67c2a5"/>
      <stop offset=".44" stop-color="#fcde89"/>
      <stop offset=".6" stop-color="#fdd082"/>
      <stop offset=".8" stop-color="#f26d44"/>
      <stop offset=".98" stop-color="#9c1b45"/>
    </linearGradient>
  </defs>
  <polygon class="cls-7" points="139.01 110.76 70.32 148.34 1.07 111.98 .5 38.14 69.14 .57 138.39 36.88 139.01 110.76"/>
  <g>
    <g>
      <path class="cls-9" d="m18.64,60.32l-1.37,7.02h-.4c-.09-1.1-.25-1.98-.47-2.64-.34-.96-.79-1.69-1.36-2.21-.56-.52-1.17-.78-1.83-.78s-1.19.3-1.66.91-.71,1.29-.71,2.05.16,1.49.49,2.22c.33.73,1.1,1.82,2.33,3.29.98,1.17,1.64,2.18,1.98,3.02.34.84.5,1.76.5,2.75,0,1.11-.24,2.13-.71,3.07-.47.94-1.15,1.66-2.05,2.17-.9.51-1.91.77-3.05.77-.7,0-1.58-.13-2.63-.39-1.06-.26-1.76-.39-2.11-.39-.28,0-.52.05-.74.16-.22.11-.49.31-.81.62h-.47l1.47-7.89h.46c.11,1.38.33,2.56.67,3.53.34.97.83,1.73,1.46,2.27.63.54,1.35.82,2.17.82s1.47-.33,2.01-1c.54-.67.81-1.45.81-2.34,0-.76-.15-1.5-.46-2.2-.3-.7-1-1.72-2.08-3.07-1.08-1.34-1.83-2.54-2.24-3.6-.3-.78-.45-1.62-.45-2.5,0-1.54.48-2.86,1.45-3.98.96-1.12,2.23-1.68,3.78-1.68.71,0,1.63.2,2.79.59.67.23,1.15.35,1.42.35.24,0,.45-.06.63-.19.19-.13.41-.38.66-.75h.54Z"/>
      <path class="cls-9" d="m19.59,68.19l4.03-.85h.73l-.55,2.49c.85-.98,1.55-1.63,2.09-1.97.54-.34,1.08-.51,1.62-.51.76,0,1.35.37,1.76,1.11s.62,1.64.62,2.71c0,2.92-.81,5.51-2.42,7.76-1.43,1.99-2.98,2.99-4.67,2.99-.3,0-.56-.04-.77-.11s-.51-.23-.89-.47l-.63,2.75c-.23,1-.34,1.75-.34,2.27,0,.33.09.58.27.77.18.19.6.35,1.25.48l-.11.56h-6.54l.12-.56c.52-.02.95-.23,1.3-.63s.67-1.25.97-2.56l2.97-12.83c.22-.96.33-1.63.33-2.03,0-.17-.03-.32-.1-.43-.06-.12-.16-.2-.29-.25-.13-.05-.42-.08-.88-.08l.13-.59Zm1.9,11.71c.24.5.46.83.66,1,.19.17.42.25.68.25s.51-.09.76-.27c.25-.18.55-.54.92-1.08.36-.54.72-1.23,1.05-2.07.34-.84.61-1.8.81-2.88s.3-2.1.3-3.07c0-.78-.11-1.35-.33-1.71-.22-.36-.49-.53-.81-.53-.28,0-.55.09-.8.27-.36.26-.79.76-1.29,1.48l-1.95,8.6Z"/>
      <path class="cls-9" d="m42.6,67.55l-2.36,10.14-.24,1.24c-.02.15-.04.26-.04.34,0,.12.03.23.1.32s.14.14.21.14c.17,0,.41-.16.71-.49.12-.13.41-.6.88-1.4l.43.27c-.58,1.32-1.19,2.29-1.84,2.89s-1.36.91-2.11.91c-.46,0-.81-.15-1.06-.45-.24-.3-.36-.68-.36-1.14,0-.4.13-1.13.39-2.21l.29-1.24c-.94,2.02-1.85,3.46-2.71,4.3-.5.49-1.04.73-1.61.73-.75,0-1.29-.38-1.62-1.15s-.5-1.63-.5-2.6c0-1.43.35-3.08,1.05-4.93.7-1.86,1.61-3.35,2.75-4.48.93-.94,1.81-1.4,2.63-1.4.45,0,.82.17,1.09.5.28.33.48.93.61,1.81l.44-1.88,2.88-.21Zm-3.89,2.9c0-.82-.1-1.42-.3-1.79-.15-.25-.34-.38-.6-.38s-.51.15-.78.46c-.54.63-1.13,1.91-1.76,3.84s-.94,3.59-.94,5c0,.54.07.93.21,1.17.14.24.3.36.47.36.37,0,.73-.26,1.11-.79.54-.75,1.02-1.67,1.45-2.76.76-1.91,1.14-3.61,1.14-5.09Z"/>
      <path class="cls-9" d="m50.39,63.61l-.97,4.15h1.59l-.43,1.75h-1.57l-2.03,8.85c-.13.55-.19.97-.19,1.25,0,.13.04.25.11.34.07.1.15.14.24.14.14,0,.28-.07.43-.21.37-.36.81-.98,1.3-1.86l.43.34c-.56,1.22-1.18,2.12-1.85,2.68s-1.33.85-1.98.85c-.55,0-.98-.17-1.28-.53-.3-.35-.46-.79-.46-1.33,0-.59.1-1.35.32-2.27l1.92-8.25h-1.65l.24-1.13c1.04-.48,1.91-1.04,2.63-1.68s1.57-1.67,2.58-3.1h.63Z"/>
      <path class="cls-9" d="m56.64,67.34l-2.49,10.85c-.14.62-.21,1.03-.21,1.22,0,.11.04.22.11.31.07.1.15.14.23.14.14,0,.28-.08.41-.23.36-.38.8-1.06,1.31-2.04l.41.3c-1.23,2.67-2.53,4.01-3.91,4.01-.53,0-.95-.19-1.26-.56-.31-.37-.47-.84-.47-1.41,0-.38.07-.85.21-1.43l1.69-7.29c.16-.7.24-1.23.24-1.59,0-.22-.08-.42-.23-.59-.15-.17-.36-.26-.63-.26-.12,0-.27,0-.44.01l.16-.61,4.12-.84h.73Zm-.75-7.02c.5,0,.93.22,1.27.66.34.44.52.97.52,1.59s-.17,1.15-.52,1.59-.77.66-1.27.66-.9-.22-1.25-.66-.52-.97-.52-1.59.17-1.15.52-1.59c.34-.44.76-.66,1.26-.66Z"/>
      <path class="cls-9" d="m69.27,67.55l-2.36,10.14-.24,1.24c-.02.15-.04.26-.04.34,0,.12.03.23.1.32s.14.14.21.14c.17,0,.41-.16.71-.49.12-.13.41-.6.88-1.4l.43.27c-.58,1.32-1.19,2.29-1.84,2.89s-1.36.91-2.11.91c-.46,0-.81-.15-1.06-.45-.24-.3-.36-.68-.36-1.14,0-.4.13-1.13.39-2.21l.29-1.24c-.94,2.02-1.85,3.46-2.71,4.3-.5.49-1.04.73-1.61.73-.75,0-1.29-.38-1.62-1.15s-.5-1.63-.5-2.6c0-1.43.35-3.08,1.05-4.93.7-1.86,1.61-3.35,2.75-4.48.93-.94,1.81-1.4,2.63-1.4.45,0,.82.17,1.09.5.28.33.48.93.61,1.81l.44-1.88,2.88-.21Zm-3.89,2.9c0-.82-.1-1.42-.3-1.79-.15-.25-.34-.38-.6-.38s-.51.15-.78.46c-.54.63-1.13,1.91-1.76,3.84s-.94,3.59-.94,5c0,.54.07.93.21,1.17.14.24.3.36.47.36.37,0,.73-.26,1.11-.79.54-.75,1.02-1.67,1.45-2.76.76-1.91,1.14-3.61,1.14-5.09Z"/>
      <path class="cls-9" d="m77.8,60.32l-4.03,17.18c-.24,1.02-.35,1.65-.35,1.91,0,.13.03.24.1.33.07.09.14.14.23.14.15,0,.28-.07.41-.21.39-.4.82-1.07,1.3-2.01l.47.28c-.77,1.55-1.53,2.65-2.27,3.31-.51.45-1.05.67-1.63.67-.54,0-.96-.18-1.28-.54-.32-.36-.47-.8-.47-1.3,0-.38.1-.98.29-1.81l3.28-14.06c.18-.77.27-1.29.27-1.54s-.08-.44-.25-.58c-.23-.2-.57-.29-1.03-.26l.13-.58,4.1-.9h.73Z"/>
      <path class="cls-9" d="m80.96,60.79h13.27l-1.25,5.57h-.44c.02-.29.02-.55.02-.78,0-1.06-.25-1.88-.74-2.46-.5-.58-1.33-.92-2.51-1l-3.67,15.57c-.2.86-.3,1.51-.3,1.92,0,.39.13.69.38.92.25.23.76.35,1.53.37l-.11.56h-8.19l.15-.56c.83,0,1.44-.2,1.83-.59.38-.39.73-1.27,1.05-2.63l3.67-15.57c-1.27.05-2.32.4-3.17,1.04s-1.63,1.71-2.34,3.2h-.47l1.3-5.57Z"/>
      <path class="cls-9" d="m97.74,67.34l-2.49,10.85c-.14.62-.21,1.03-.21,1.22,0,.11.04.22.11.31s.15.14.23.14c.14,0,.28-.08.41-.23.37-.38.8-1.06,1.31-2.04l.41.3c-1.22,2.67-2.53,4.01-3.9,4.01-.53,0-.95-.19-1.26-.56-.31-.37-.47-.84-.47-1.41,0-.38.07-.85.21-1.43l1.69-7.29c.16-.7.24-1.23.24-1.59,0-.22-.08-.42-.23-.59-.15-.17-.36-.26-.63-.26-.12,0-.27,0-.44.01l.16-.61,4.12-.84h.73Zm-.75-7.02c.5,0,.93.22,1.27.66.34.44.52.97.52,1.59s-.17,1.15-.52,1.59-.77.66-1.27.66-.9-.22-1.25-.66-.52-.97-.52-1.59.17-1.15.52-1.59c.34-.44.76-.66,1.26-.66Z"/>
      <path class="cls-9" d="m105.05,67.34l-1.56,6.56c1.05-2.01,1.81-3.37,2.29-4.07.71-1.03,1.29-1.7,1.75-2.01.46-.32.92-.47,1.38-.47.53,0,.91.2,1.14.6.24.4.35.83.35,1.31s-.11,1.23-.33,2.2l-.55,2.46c1.05-2.03,1.81-3.39,2.27-4.06.71-1.04,1.33-1.74,1.86-2.1.37-.26.75-.4,1.17-.4s.79.18,1.08.54c.29.36.43.83.43,1.41,0,.65-.12,1.49-.37,2.53l-1.35,5.69c-.2.84-.3,1.39-.3,1.63,0,.08.03.16.08.23.05.07.11.11.18.11.09,0,.17-.04.23-.11.29-.29.6-.73.92-1.3.07-.12.18-.31.33-.56l.41.33c-.56,1.31-1.17,2.27-1.84,2.88-.67.61-1.29.92-1.85.92-.5,0-.89-.17-1.19-.51s-.45-.74-.45-1.2.1-1.1.3-1.98l1.37-5.95c.19-.82.28-1.34.28-1.54,0-.07-.03-.14-.09-.21-.06-.07-.11-.1-.17-.1-.11,0-.21.03-.32.09-.15.1-.39.37-.71.79s-.78,1.19-1.38,2.3c-.6,1.1-1.02,1.96-1.25,2.58-.23.62-.46,1.42-.69,2.41l-.74,3.14h-3.08l2.28-9.96c.12-.54.18-.91.18-1.11,0-.07-.03-.14-.08-.2-.05-.06-.11-.09-.16-.09-.3,0-.78.49-1.42,1.48-.99,1.53-1.89,3.36-2.7,5.51l-.99,4.38h-3.1l2.29-9.81c.23-.97.34-1.65.34-2.06,0-.16-.03-.3-.1-.42-.06-.12-.17-.21-.32-.27-.15-.07-.43-.1-.84-.1l.12-.58,4.15-.9h.73Z"/>
      <path class="cls-9" d="m121.83,75.76c-.07.66-.11,1.21-.11,1.63,0,.76.18,1.37.53,1.83.35.46.83.69,1.42.69s1.14-.17,1.71-.52c.57-.35,1.24-.95,1.99-1.82l.37.41c-.93,1.41-1.84,2.42-2.72,3.02-.88.6-1.86.9-2.93.9-1.35,0-2.29-.41-2.81-1.22-.52-.81-.78-1.75-.78-2.82,0-1.67.39-3.33,1.16-5s1.83-3,3.16-4.01,2.67-1.51,4.02-1.51c.68,0,1.2.2,1.54.61.35.41.52.92.52,1.54,0,.74-.17,1.46-.51,2.17-.47.96-1.06,1.73-1.78,2.31-.71.58-1.51,1.03-2.4,1.33-.59.2-1.39.36-2.38.46Zm.11-.79c.71-.13,1.27-.31,1.66-.54.39-.23.78-.59,1.16-1.1.38-.5.7-1.14.98-1.91.28-.77.41-1.49.41-2.16,0-.29-.06-.51-.19-.67-.12-.16-.29-.24-.48-.24-.39,0-.83.34-1.31,1.02-.89,1.24-1.63,3.11-2.23,5.6Z"/>
    </g>
    <text class="cls-2" transform="translate(4.1 81.48) scale(.8 1)"><tspan class="cls-4" x="0" y="0">Spatial</tspan><tspan class="cls-3" x="91.37" y="0">T</tspan><tspan class="cls-5" x="109.44" y="0">ime</tspan></text>
    <text class="cls-8" transform="translate(4.1 81.48) scale(.8 1)"><tspan class="cls-4" x="0" y="0">Spatial</tspan><tspan class="cls-3" x="91.37" y="0">T</tspan><tspan class="cls-5" x="109.44" y="0">ime</tspan></text>
  </g>
  <g>
    <line class="cls-1" x1="24.05" y1="84.45" x2="133.25" y2="84.45"/>
    <g>
      <line class="cls-6" x1="24.05" y1="84.45" x2="130.97" y2="84.45"/>
      <polygon class="cls-1" points="126.98 87.84 130.38 84.45 126.98 81.06 129.86 81.06 133.25 84.45 129.86 87.84 126.98 87.84"/>
    </g>
  </g>
</svg>