<?xml version="1.0" encoding="UTF-8"?>
<svg id="Layer_1" data-name="Layer 1" xmlns="http://www.w3.org/2000/svg" xmlns:xlink="http://www.w3.org/1999/xlink" viewBox="0 0 109 117.39">
  <defs>
    <style>
      .cls-1, .cls-2 {
        fill: #fff;
      }

      .cls-3 {
        letter-spacing: -.03em;
      }

      .cls-4 {
        stroke: #231f20;
        stroke-width: .05px;
      }

      .cls-4, .cls-2 {
        font-family: TimesNewRomanPS-BoldItalicMT, 'Times New Roman';
        font-size: 23.73px;
        font-style: italic;
        font-weight: 700;
      }

      .cls-4, .cls-5 {
        fill: none;
      }

      .cls-4, .cls-5, .cls-6 {
        stroke-miterlimit: 10;
      }

      .cls-5 {
        stroke: #fff;
        stroke-width: 2px;
      }

      .cls-7 {
        letter-spacing: 0em;
      }

      .cls-8 {
        fill: url(#linear-gradient-3);
      }

      .cls-6 {
        fill: url(#linear-gradient);
        stroke: url(#linear-gradient-2);
      }
    </style>
    <linearGradient id="linear-gradient" x1=".5" y1="58.7" x2="108.5" y2="58.7" gradientUnits="userSpaceOnUse">
      <stop offset="0" stop-color="#3e51a1"/>
      <stop offset=".06" stop-color="#415a98"/>
      <stop offset=".16" stop-color="#497482"/>
      <stop offset=".28" stop-color="#579d5d"/>
      <stop offset=".36" stop-color="#61b946"/>
      <stop offset=".66" stop-color="#f4ed69" stop-opacity=".95"/>
      <stop offset=".7" stop-color="#edbd59" stop-opacity=".94"/>
      <stop offset=".75" stop-color="#e68d4a" stop-opacity=".93"/>
      <stop offset=".81" stop-color="#e0663e" stop-opacity=".92"/>
      <stop offset=".86" stop-color="#dc4734" stop-opacity=".91"/>
      <stop offset=".91" stop-color="#d9312d" stop-opacity=".9"/>
      <stop offset=".95" stop-color="#d72429" stop-opacity=".9"/>
      <stop offset="1" stop-color="#d72028" stop-opacity=".9"/>
    </linearGradient>
    <linearGradient id="linear-gradient-2" x1="0" y1="58.7" x2="109" y2="58.7" gradientUnits="userSpaceOnUse">
      <stop offset="0" stop-color="#231f20"/>
      <stop offset=".99" stop-color="#231f20"/>
    </linearGradient>
    <linearGradient id="linear-gradient-3" x1="14.72" y1="55.93" x2="101.05" y2="55.93" gradientUnits="userSpaceOnUse">
      <stop offset=".09" stop-color="#5f50a0"/>
      <stop offset=".28" stop-color="#67c2a5"/>
      <stop offset=".44" stop-color="#fcde89"/>
      <stop offset=".6" stop-color="#fdd082"/>
      <stop offset=".8" stop-color="#f26d44"/>
      <stop offset=".98" stop-color="#9c1b45"/>
    </linearGradient>
  </defs>
  <polygon class="cls-6" points="108.5 87.26 54.95 116.82 .95 88.22 .5 30.13 54.02 .57 108.02 29.13 108.5 87.26"/>
  <g>
    <g>
      <path class="cls-8" d="m14.97,46.08l-1.04,5.33h-.3c-.07-.83-.19-1.5-.36-2-.26-.73-.6-1.29-1.03-1.68-.43-.39-.89-.59-1.39-.59s-.9.23-1.26.69c-.36.46-.54.98-.54,1.56s.12,1.13.37,1.69c.25.55.84,1.38,1.77,2.5.75.89,1.25,1.65,1.5,2.29.26.64.38,1.34.38,2.09,0,.84-.18,1.62-.54,2.33-.36.71-.88,1.26-1.56,1.65-.68.39-1.45.58-2.31.58-.53,0-1.2-.1-2-.3-.8-.2-1.34-.3-1.6-.3-.21,0-.4.04-.56.12-.17.08-.37.24-.62.47h-.36l1.12-5.99h.35c.08,1.05.25,1.94.51,2.68s.63,1.31,1.11,1.73,1.03.62,1.64.62,1.12-.25,1.53-.76.61-1.1.61-1.78c0-.58-.12-1.14-.35-1.67-.23-.53-.76-1.31-1.58-2.33s-1.39-1.93-1.7-2.73c-.23-.59-.34-1.23-.34-1.9,0-1.17.37-2.17,1.1-3.02.73-.85,1.69-1.27,2.87-1.27.54,0,1.24.15,2.12.45.51.18.87.27,1.08.27.18,0,.34-.05.48-.15.14-.1.31-.29.5-.57h.41Z"/>
      <path class="cls-8" d="m15.69,52.06l3.06-.65h.55l-.42,1.89c.65-.74,1.18-1.24,1.59-1.5.41-.26.82-.39,1.23-.39.58,0,1.03.28,1.34.84.31.56.47,1.25.47,2.06,0,2.22-.61,4.18-1.84,5.9-1.08,1.51-2.27,2.27-3.55,2.27-.23,0-.42-.03-.58-.08s-.38-.17-.67-.36l-.48,2.08c-.17.76-.26,1.33-.26,1.73,0,.25.07.44.2.59.14.14.45.26.95.37l-.08.43h-4.97l.09-.43c.39-.02.72-.17.98-.47.26-.3.51-.95.73-1.95l2.25-9.74c.17-.73.25-1.24.25-1.54,0-.13-.02-.24-.07-.33-.05-.09-.12-.15-.22-.19-.1-.04-.32-.06-.67-.06l.1-.45Zm1.44,8.9c.18.38.35.63.5.76s.32.19.52.19.39-.07.58-.2c.19-.14.42-.41.7-.82.28-.41.54-.93.8-1.58.26-.64.46-1.37.61-2.18.15-.81.23-1.59.23-2.33,0-.59-.08-1.03-.25-1.3s-.37-.41-.61-.41c-.22,0-.42.07-.61.21-.28.2-.6.58-.98,1.12l-1.48,6.53Z"/>
      <path class="cls-8" d="m33.16,51.57l-1.79,7.7-.18.94c-.02.12-.03.2-.03.25,0,.09.03.17.08.24.05.07.11.1.16.1.13,0,.31-.12.54-.37.09-.1.31-.46.67-1.07l.32.21c-.44,1-.9,1.74-1.4,2.2-.5.46-1.03.69-1.6.69-.35,0-.62-.11-.8-.34-.18-.23-.28-.52-.28-.86,0-.3.1-.86.3-1.68l.22-.94c-.71,1.54-1.4,2.63-2.06,3.27-.38.37-.79.56-1.22.56-.57,0-.98-.29-1.23-.87-.25-.58-.38-1.24-.38-1.98,0-1.09.26-2.34.79-3.75.53-1.41,1.23-2.54,2.09-3.4.71-.71,1.37-1.07,2-1.07.35,0,.62.13.83.38.21.25.36.71.46,1.37l.33-1.42,2.19-.16Zm-2.96,2.2c0-.63-.08-1.08-.23-1.36-.11-.19-.26-.29-.45-.29s-.39.12-.59.35c-.41.48-.86,1.45-1.33,2.91-.48,1.46-.72,2.73-.72,3.79,0,.41.05.71.16.89.11.18.23.27.36.27.28,0,.56-.2.84-.6.41-.57.77-1.27,1.1-2.1.58-1.45.87-2.74.87-3.87Z"/>
      <path class="cls-8" d="m39.08,48.58l-.74,3.15h1.21l-.32,1.33h-1.19l-1.54,6.72c-.1.42-.15.73-.15.95,0,.1.03.19.08.26.06.07.12.11.19.11.1,0,.21-.05.32-.16.28-.27.61-.74.99-1.41l.32.25c-.42.93-.89,1.61-1.4,2.04-.51.43-1.01.65-1.51.65-.42,0-.74-.13-.98-.4-.23-.27-.35-.6-.35-1.01,0-.45.08-1.02.24-1.73l1.46-6.27h-1.26l.19-.86c.79-.36,1.45-.79,2-1.27.54-.49,1.19-1.27,1.96-2.35h.48Z"/>
      <path class="cls-8" d="m43.83,51.41l-1.89,8.24c-.1.47-.16.78-.16.93,0,.09.03.16.08.24.06.07.11.11.18.11.1,0,.21-.06.31-.17.28-.29.61-.8,1-1.55l.31.23c-.93,2.03-1.92,3.05-2.97,3.05-.4,0-.72-.14-.96-.42-.24-.28-.36-.64-.36-1.07,0-.29.05-.65.16-1.09l1.28-5.54c.12-.53.18-.93.18-1.21,0-.17-.06-.32-.18-.45-.12-.13-.28-.2-.48-.2-.09,0-.2,0-.33.01l.12-.46,3.13-.64h.55Zm-.57-5.33c.38,0,.7.17.97.5s.39.73.39,1.2-.13.87-.4,1.21c-.27.33-.59.5-.96.5s-.69-.17-.95-.5c-.27-.33-.4-.73-.4-1.21s.13-.87.39-1.2c.26-.33.58-.5.96-.5Z"/>
      <path class="cls-8" d="m53.42,51.57l-1.79,7.7-.18.94c-.02.12-.03.2-.03.25,0,.09.03.17.08.24.05.07.11.1.16.1.13,0,.31-.12.54-.37.09-.1.31-.46.67-1.07l.32.21c-.44,1-.9,1.74-1.4,2.2-.5.46-1.03.69-1.6.69-.35,0-.62-.11-.8-.34-.18-.23-.28-.52-.28-.86,0-.3.1-.86.3-1.68l.22-.94c-.71,1.54-1.4,2.63-2.06,3.27-.38.37-.79.56-1.22.56-.57,0-.98-.29-1.23-.87-.25-.58-.38-1.24-.38-1.98,0-1.09.26-2.34.79-3.75.53-1.41,1.23-2.54,2.09-3.4.71-.71,1.37-1.07,2-1.07.35,0,.62.13.83.38.21.25.36.71.46,1.37l.33-1.42,2.19-.16Zm-2.96,2.2c0-.63-.08-1.08-.23-1.36-.11-.19-.26-.29-.45-.29s-.39.12-.59.35c-.41.48-.86,1.45-1.33,2.91-.48,1.46-.72,2.73-.72,3.79,0,.41.05.71.16.89.11.18.23.27.36.27.28,0,.56-.2.84-.6.41-.57.77-1.27,1.1-2.1.58-1.45.87-2.74.87-3.87Z"/>
      <path class="cls-8" d="m59.9,46.08l-3.06,13.04c-.18.77-.27,1.25-.27,1.45,0,.1.03.19.08.25.05.07.11.1.17.1.11,0,.22-.05.31-.16.3-.3.62-.81.99-1.53l.36.21c-.59,1.17-1.16,2.01-1.73,2.51-.39.34-.8.51-1.24.51-.41,0-.73-.14-.97-.41s-.36-.6-.36-.99c0-.29.07-.75.22-1.38l2.49-10.68c.14-.59.2-.98.2-1.17s-.06-.33-.19-.44c-.17-.15-.43-.22-.79-.2l.1-.44,3.11-.68h.55Z"/>
      <path class="cls-8" d="m62.3,46.44h10.08l-.95,4.23h-.33c.01-.22.02-.42.02-.59,0-.8-.19-1.43-.56-1.87-.38-.44-1.01-.7-1.9-.76l-2.79,11.83c-.15.66-.23,1.14-.23,1.46,0,.29.1.53.29.7.19.17.58.27,1.16.28l-.08.43h-6.22l.11-.43c.63,0,1.1-.15,1.39-.45.29-.3.55-.96.79-2l2.79-11.83c-.96.04-1.76.3-2.41.79-.65.49-1.24,1.3-1.77,2.43h-.36l.99-4.23Z"/>
      <path class="cls-8" d="m75.04,51.41l-1.89,8.24c-.1.47-.16.78-.16.93,0,.09.03.16.08.24.06.07.11.11.18.11.1,0,.21-.06.31-.17.28-.29.61-.8,1-1.55l.31.23c-.93,2.03-1.92,3.05-2.97,3.05-.4,0-.72-.14-.96-.42-.24-.28-.36-.64-.36-1.07,0-.29.05-.65.16-1.09l1.28-5.54c.12-.53.18-.93.18-1.21,0-.17-.06-.32-.18-.45s-.28-.2-.48-.2c-.09,0-.2,0-.33.01l.12-.46,3.13-.64h.55Zm-.57-5.33c.38,0,.7.17.97.5.26.33.39.73.39,1.2s-.13.87-.4,1.21-.58.5-.96.5-.69-.17-.95-.5c-.26-.33-.4-.73-.4-1.21s.13-.87.39-1.2.58-.5.96-.5Z"/>
      <path class="cls-8" d="m80.59,51.41l-1.18,4.98c.79-1.53,1.37-2.56,1.74-3.09.54-.78.98-1.29,1.33-1.53.35-.24.7-.36,1.05-.36.4,0,.69.15.87.45.18.3.27.63.27,1s-.08.93-.25,1.67l-.42,1.86c.8-1.54,1.38-2.57,1.73-3.08.54-.79,1.01-1.32,1.41-1.6.28-.2.57-.3.89-.3s.6.14.82.41c.22.27.33.63.33,1.07,0,.49-.09,1.14-.28,1.92l-1.03,4.32c-.15.64-.23,1.05-.23,1.24,0,.06.02.12.06.17s.08.08.13.08c.07,0,.13-.03.18-.08.22-.22.46-.55.7-.98.06-.09.14-.24.25-.43l.31.25c-.42,1-.89,1.73-1.4,2.19s-.98.7-1.41.7c-.38,0-.68-.13-.91-.39s-.34-.56-.34-.91.08-.83.23-1.51l1.04-4.52c.14-.63.21-1.02.21-1.17,0-.05-.02-.11-.06-.16s-.09-.08-.13-.08c-.08,0-.16.02-.24.07-.12.08-.3.28-.54.6-.24.32-.59.91-1.05,1.74-.46.84-.77,1.49-.95,1.96-.18.47-.35,1.08-.52,1.83l-.56,2.39h-2.34l1.73-7.56c.09-.41.14-.69.14-.85,0-.05-.02-.1-.06-.15s-.08-.07-.12-.07c-.23,0-.59.38-1.08,1.12-.75,1.16-1.43,2.55-2.05,4.18l-.75,3.32h-2.36l1.74-7.45c.17-.73.26-1.25.26-1.56,0-.12-.03-.23-.07-.32-.05-.09-.13-.16-.24-.21-.11-.05-.32-.08-.64-.08l.09-.44,3.15-.68h.55Z"/>
      <path class="cls-8" d="m93.34,57.8c-.05.5-.08.92-.08,1.24,0,.58.13,1.04.4,1.39.27.35.63.52,1.08.52s.86-.13,1.3-.39c.43-.26.94-.72,1.51-1.38l.28.31c-.71,1.07-1.4,1.84-2.07,2.29-.67.46-1.41.68-2.23.68-1.03,0-1.74-.31-2.13-.93-.39-.62-.59-1.33-.59-2.14,0-1.27.29-2.53.88-3.8s1.39-2.28,2.4-3.05c1.01-.76,2.03-1.15,3.05-1.15.52,0,.91.15,1.17.46.26.31.4.7.4,1.17,0,.56-.13,1.11-.39,1.65-.36.73-.81,1.31-1.35,1.75-.54.44-1.15.78-1.82,1.01-.45.15-1.05.27-1.81.35Zm.08-.6c.54-.1.96-.24,1.26-.41s.59-.45.88-.83c.29-.38.53-.87.74-1.45.21-.58.31-1.13.31-1.64,0-.22-.05-.39-.14-.51s-.22-.19-.36-.19c-.3,0-.63.26-1,.78-.68.94-1.24,2.36-1.69,4.25Z"/>
    </g>
    <text class="cls-2" transform="translate(3.93 62.15) scale(.8 1)"><tspan class="cls-7" x="0" y="0">Spatial</tspan><tspan class="cls-3" x="69.39" y="0">T</tspan><tspan class="cls-7" x="83.12" y="0">ime</tspan></text>
    <text class="cls-4" transform="translate(3.93 62.15) scale(.8 1)"><tspan class="cls-7" x="0" y="0">Spatial</tspan><tspan class="cls-3" x="69.39" y="0">T</tspan><tspan class="cls-7" x="83.12" y="0">ime</tspan></text>
  </g>
  <g>
    <line class="cls-1" x1="22" y1="67.22" x2="106.04" y2="67.22"/>
    <g>
      <line class="cls-5" x1="22" y1="67.22" x2="103.75" y2="67.22"/>
      <polygon class="cls-1" points="99.77 70.61 103.16 67.22 99.77 63.83 102.65 63.83 106.04 67.22 102.65 70.61 99.77 70.61"/>
    </g>
  </g>
</svg>